# xmcd
#
# Track frame offsets:
#  150
#  22575
#  42225
#  63600
#  83062
#  104937
#  123912
#  143700
#  165537
#  185800
#  206362
#  222662
#  240150
#  269387
#  285587
#  306750
#
# Disc length: 4367 seconds
#
# Revision: 0
# Processed by: cddbd v1.5.1PL0 Copyright (c) Steve Scherf et al.
# Submitted via: Collectorz.com Music Collector 6.9
#
DISCID=e5110d10
DTITLE=Rod Stewart - Story So Far: Very Best of
DYEAR=2001
DGENRE=
TTITLE0=Maggie May
TTITLE1=You Wear It Well
TTITLE2=Baby Jane
TTITLE3=Da Ya Think I'm Sexy
TTITLE4=I Was Only Joking
TTITLE5=This Old Heart Of Mine
TTITLE6=Sailing
TTITLE7=I Don't Want To Talk About It
TTITLE8=You're In My Heart
TTITLE9=Young Turks
TTITLE10=What Am I Gonna Do (I'm So In Love With You)
TTITLE11=The First Cut Is The Deepest
TTITLE12=The Killing Of George (Part I and II)
TTITLE13=Tonight's The Night
TTITLE14=Every Beat Of My Heart
TTITLE15=Downtown Train
EXTD=
EXTT0=
EXTT1=
EXTT2=
EXTT3=
EXTT4=
EXTT5=
EXTT6=
EXTT7=
EXTT8=
EXTT9=
EXTT10=
EXTT11=
EXTT12=
EXTT13=
EXTT14=
EXTT15=
PLAYORDER=
